<?xml version="1.0" encoding="UTF-8" standalone="no"?><!DOCTYPE svg PUBLIC "-//W3C//DTD SVG 1.1//EN" "http://www.w3.org/Graphics/SVG/1.1/DTD/svg11.dtd"><svg width="100%" height="100%" viewBox="0 0 426 426" version="1.1" xmlns="http://www.w3.org/2000/svg" xmlns:xlink="http://www.w3.org/1999/xlink" xml:space="preserve" xmlns:serif="http://www.serif.com/" style="fill-rule:evenodd;clip-rule:evenodd;stroke-linejoin:round;stroke-miterlimit:2;"><rect x="0" y="0" width="425.805" height="425.805" style="fill:none;"/><g><path d="M66.273,204.555l64.767,-40.227l-0,23.634l-41.837,23.633l-0,0.805l41.837,23.734l-0,23.533l-64.767,-40.328l0,-14.784Z" style="fill-rule:nonzero;"/><path d="M141.599,119.474l26.651,0l18.907,136.07l1.106,-0l19.008,-136.07l26.55,0l-31.277,171.772l-29.768,-0l-31.177,-171.772Z" style="fill-rule:nonzero;"/><path d="M268.215,101.774l22.025,-0l-31.478,222.257l-22.025,0l31.478,-222.257Z" style="fill-rule:nonzero;"/><path d="M359.532,204.555l-64.766,-40.227l-0,23.634l41.836,23.633l0,0.805l-41.836,23.734l-0,23.533l64.766,-40.328l-0,-14.784Z" style="fill-rule:nonzero;"/></g></svg>